# xmcd
#
# Track frame offsets:
#	150
#	34625
#	67706
#	95997
#	125237
#	156631
#	177739
#	191515
#	218605
#	243513
#	257940
#	276317
#	293653
#	312468
#	330185
#
# Disc length: 4661
#
# Revision: 1
# Processed by: cddbd v1.5.1PL0 Copyright (c) Steve Scherf et al.
# Submitted via: EasyCDDAExtractor 5.0.5.1
# Normalized: r0:DSETVAR1
#
DISCID=ea12330f
DTITLE=Various Artist - DEE JAY MIX CLUB KWIECIEÑ PART 3
DYEAR=2003
DGENRE=Acid
TTITLE0=BALLOON - AREU READY 4 THIS
TTITLE1=NIGHTWATCHERS - DARKSIDE OF MY DREAMS
TTITLE2=NOUKY - WHEN THE RAIN BEGINS TO FAIL
TTITLE3=BLOCK HEADS - ROCKIN THE BEAT
TTITLE4=DJ ELECTRO - TIME and SPACE
TTITLE5=HOTEL SAINT GEORGE - NEVER SAY NEVER
TTITLE6=4 STRINGS - LET IT RAIN
TTITLE7=IN-GRID - YOU PROMISED ME (RMX)
TTITLE8=SMILING PEOPLE - SE EVERYBODY DANCE
TTITLE9=KINKY - SOUNTHA MI PRIMER AMOR
TTITLE10=SNOOP DOGG - BEATIFUL
TTITLE11=KELLY ROWLAND - CAN'T NOBODY
TTITLE12=HOT ACTION COP - FEVER FOR THE FLAVA
TTITLE13=SIXPENCE NONE THE RICHER - DON'T DREAM IT'S OVER
TTITLE14=APPLETON - DON'T WORRY
EXTD=
EXTT0=
EXTT1=
EXTT2=
EXTT3=
EXTT4=
EXTT5=
EXTT6=
EXTT7=
EXTT8=
EXTT9=
EXTT10=
EXTT11=
EXTT12=
EXTT13=
EXTT14=
PLAYORDER=
